<mxfile host="drawio-plugin" modified="2022-12-04T09:22:01.958Z" agent="5.0 (X11; Linux x86_64) AppleWebKit/537.36 (KHTML, like Gecko) Chrome/98.0.4758.102 Safari/537.36" version="20.5.3" etag="bREIaXmWjGInF5eCglRj" type="embed"><diagram id="Q_ZtXDbK6NfGidxIWEMt" name="Page-1"><mxGraphModel dx="435" dy="369" grid="1" gridSize="10" guides="1" tooltips="1" connect="1" arrows="1" fold="1" page="1" pageScale="1" pageWidth="850" pageHeight="1100" math="0" shadow="0"><root><mxCell id="0"/><mxCell id="1" parent="0"/></root></mxGraphModel></diagram></mxfile>